<?xml version="1.0" encoding="UTF-8" standalone="no"?>
<svg
   xmlns:dc="http://purl.org/dc/elements/1.1/"
   xmlns:cc="http://creativecommons.org/ns#"
   xmlns:rdf="http://www.w3.org/1999/02/22-rdf-syntax-ns#"
   xmlns:svg="http://www.w3.org/2000/svg"
   xmlns="http://www.w3.org/2000/svg"
   viewBox="0 0 393.26666 267.12"
   height="267.12"
   width="393.26666"
   xml:space="preserve"
   id="svg2"
   version="1.1"><metadata
     id="metadata8"><rdf:RDF><cc:Work
         rdf:about=""><dc:format>image/svg+xml</dc:format><dc:type
           rdf:resource="http://purl.org/dc/dcmitype/StillImage" /></cc:Work></rdf:RDF></metadata><defs
     id="defs6" /><g
     transform="matrix(1.3333333,0,0,-1.3333333,0,267.12)"
     id="g10"><g
       transform="scale(0.1)"
       id="g12"><path
         id="path14"
         style="fill:#ffffff;fill-opacity:1;fill-rule:nonzero;stroke:none"
         d="M 0,2003.44 H 2949.45 V 0 H 0 v 2003.44" /><path
         id="path16"
         style="fill:#254aa5;fill-opacity:1;fill-rule:nonzero;stroke:none"
         d="M 56.7188,1948.52 H 2892.73 V 57.8125 H 56.7188 V 1948.52" /><path
         id="path18"
         style="fill:#fff200;fill-opacity:1;fill-rule:nonzero;stroke:none"
         d="m 1414.3,1536.56 59.84,43.67 59.84,-43.67 -22.77,70.63 60.78,43.67 h -74.92 l -22.93,71.48 -22.93,-71.56 -74.88,0.08 60.74,-43.67 -22.77,-70.63" /><path
         id="path20"
         style="fill:#fff200;fill-opacity:1;fill-rule:nonzero;stroke:none"
         d="m 1104.61,1453.36 59.84,43.67 59.81,-43.67 -22.74,70.62 60.75,43.68 h -74.93 l -22.93,71.56 -22.93,-71.64 -74.88,0.08 60.74,-43.68 -22.73,-70.62" /><path
         id="path22"
         style="fill:#fff200;fill-opacity:1;fill-rule:nonzero;stroke:none"
         d="m 937.852,1412.11 -22.93,-71.64 -74.883,0.08 60.742,-43.67 -22.773,-70.63 59.844,43.67 59.843,-43.67 -22.773,70.63 60.738,43.67 h -74.879 l -22.929,71.56" /><path
         id="path24"
         style="fill:#fff200;fill-opacity:1;fill-rule:nonzero;stroke:none"
         d="m 854.727,960.625 59.804,-43.672 -22.734,70.625 60.742,43.672 h -74.883 l -22.929,71.56 -22.93,-71.72 -74.922,0.16 60.781,-43.672 -22.773,-70.625 59.844,43.672" /><path
         id="path26"
         style="fill:#fff200;fill-opacity:1;fill-rule:nonzero;stroke:none"
         d="m 960.781,721.016 -22.929,71.562 -22.93,-71.64 -74.883,0.078 60.742,-43.672 -22.773,-70.625 59.844,43.75 59.843,-43.75 -22.773,70.625 60.738,43.672 h -74.879" /><path
         id="path28"
         style="fill:#fff200;fill-opacity:1;fill-rule:nonzero;stroke:none"
         d="m 1187.81,493.984 -22.93,71.485 -22.89,-71.563 -74.92,0.078 60.74,-43.671 -22.73,-70.625 59.84,43.671 59.81,-43.671 -22.74,70.625 60.74,43.671 h -74.92" /><path
         id="path30"
         style="fill:#fff200;fill-opacity:1;fill-rule:nonzero;stroke:none"
         d="m 1497.11,411.719 -22.93,71.562 -22.89,-71.64 -74.92,0.078 60.74,-43.672 -22.73,-70.625 59.84,43.672 59.8,-43.672 -22.77,70.625 60.78,43.672 h -74.92" /><path
         id="path32"
         style="fill:#fff200;fill-opacity:1;fill-rule:nonzero;stroke:none"
         d="m 1806.41,493.984 -22.89,71.485 -22.97,-71.563 -74.85,0.078 60.71,-43.671 -22.74,-70.625 59.85,43.671 59.84,-43.671 -22.81,70.625 60.78,43.671 h -74.92" /><path
         id="path34"
         style="fill:#fff200;fill-opacity:1;fill-rule:nonzero;stroke:none"
         d="m 2033.52,721.016 -22.97,71.562 -22.97,-71.64 -74.85,0.078 60.79,-43.672 -22.82,-70.625 59.85,43.75 59.84,-43.75 -22.81,70.625 60.78,43.672 h -74.84" /><path
         id="path36"
         style="fill:#fff200;fill-opacity:1;fill-rule:nonzero;stroke:none"
         d="m 2190.63,1032.11 h -74.93 l -22.97,71.56 -22.89,-71.64 -74.92,0.08 60.78,-43.672 -22.73,-70.625 59.76,43.75 59.85,-43.75 -22.74,70.625 60.79,43.672" /><path
         id="path38"
         style="fill:#fff200;fill-opacity:1;fill-rule:nonzero;stroke:none"
         d="m 1950.7,1227.19 59.85,43.67 59.84,-43.67 -22.81,70.62 60.78,43.6 h -74.84 l -22.97,71.56 -22.97,-71.64 -74.85,0.08 60.79,-43.6 -22.82,-70.62" /><path
         id="path40"
         style="fill:#fff200;fill-opacity:1;fill-rule:nonzero;stroke:none"
         d="m 1784.38,1639.14 -22.9,-71.64 -74.92,0.16 60.71,-43.75 -22.74,-70.63 59.92,43.75 59.77,-43.75 -22.74,70.63 60.79,43.75 h -75 l -22.89,71.48" /></g></g></svg>